<?xml version="1.0" encoding="utf-8"?>
<!-- Generator: Adobe Illustrator 25.4.1, SVG Export Plug-In . SVG Version: 6.00 Build 0)  -->
<svg version="1.1" id="Grupo_5272" xmlns="http://www.w3.org/2000/svg" xmlns:xlink="http://www.w3.org/1999/xlink" x="0px" y="0px"
	 viewBox="0 0 40 40" style="enable-background:new 0 0 40 40;" xml:space="preserve">
<style type="text/css">
	.st0{fill:#3B3C43;}
	.st1{fill:#50535A;}
	.st2{fill:#E9500E;}
	.st3{opacity:0.9;fill:#E9500E;enable-background:new    ;}
</style>
<g id="Grupo_3957" transform="translate(-541.322 -96.927)">
	<g id="Grupo_3945" transform="translate(541.322 96.927)">
		<path id="Trazado_179" class="st0" d="M20.144,17.261V7.08c-0.338-0.022-0.678,0.028-0.996,0.147l-5.251,2.173
			c-0.474,0.196-0.7,0.74-0.504,1.214c0.048,0.117,0.12,0.222,0.21,0.311L20.144,17.261z"/>
		<path id="Trazado_180" class="st1" d="M26.534,10.968c0.366-0.36,0.371-0.949,0.011-1.315c-0.087-0.088-0.19-0.158-0.304-0.206
			l-5.387-2.23c-0.225-0.088-0.464-0.138-0.705-0.147v10.186L26.534,10.968z"/>
		<path id="Trazado_181" class="st1" d="M12.815,28.758c-0.366,0.36-0.371,0.949-0.011,1.315c0.087,0.088,0.19,0.158,0.304,0.206
			l6.038,2.5c0.198,0.076,0.406,0.122,0.617,0.136V21.918L12.815,28.758z"/>
		<path id="Trazado_182" class="st0" d="M19.768,21.921v10.997c0.366,0.035,0.736-0.012,1.082-0.136l5.761-2.386
			c0.474-0.197,0.699-0.741,0.502-1.215c-0.048-0.116-0.119-0.221-0.209-0.308L19.768,21.921z"/>
		<path id="Trazado_183" class="st2" d="M32.777,19.147l-2.33-5.623c-0.196-0.474-0.739-0.699-1.212-0.503
			c-0.107,0.044-0.205,0.109-0.289,0.189l-6.607,6.368h10.557C32.872,19.43,32.833,19.286,32.777,19.147z"/>
		<path id="Trazado_184" class="st3" d="M22.342,19.578l6.866,6.586c0.37,0.355,0.958,0.342,1.312-0.028
			c0.08-0.083,0.144-0.181,0.188-0.288l2.073-5.001c0.144-0.407,0.183-0.844,0.113-1.27H22.342z"/>
		<path id="Trazado_185" class="st0" d="M7.105,19.578c-0.07,0.426-0.031,0.863,0.113,1.27l2.053,4.971
			c0.197,0.473,0.74,0.698,1.213,0.501c0.108-0.045,0.206-0.109,0.29-0.19l6.759-6.551L7.105,19.578z"/>
		<path id="Trazado_186" class="st1" d="M11.016,13.289c-0.37-0.356-0.959-0.344-1.314,0.026c-0.08,0.083-0.144,0.181-0.188,0.288
			l-2.296,5.544c-0.054,0.139-0.092,0.284-0.113,0.431h10.435L11.016,13.289z"/>
	</g>
	<path id="Trazado_187" class="st0" d="M560.327,116.581c0,0.551,0.446,0.997,0.997,0.997c0.551,0,0.997-0.446,0.997-0.997
		c0-0.551-0.446-0.997-0.997-0.997l0,0C560.774,115.584,560.327,116.031,560.327,116.581z"/>
</g>
</svg>
