<?xml version="1.0" encoding="utf-8"?>
<!-- Generator: Adobe Illustrator 25.4.1, SVG Export Plug-In . SVG Version: 6.00 Build 0)  -->
<svg version="1.1" id="Grupo_5272" xmlns="http://www.w3.org/2000/svg" xmlns:xlink="http://www.w3.org/1999/xlink" x="0px" y="0px"
	 viewBox="0 0 40 40" style="enable-background:new 0 0 40 40;" xml:space="preserve">
<style type="text/css">
	.st0{fill:#FFC629;}
	.st1{fill:#0071CE;}
	.st2{fill:#773DBD;}
	.st3{fill:#F5333F;}
	.st4{fill:#35B263;}
</style>
<g id="Grupo_3954" transform="translate(0 0)">
	<g id="Grupo_3953">
		<g id="Grupo_3952">
			<g id="Grupo_3951">
				<g id="Grupo_3946" transform="translate(17.835 4.123)">
					<path id="Trazado_188" class="st0" d="M-282.275-371.555l-6.034-9.706c-0.021-0.029-0.04-0.06-0.057-0.092
						c-0.264-0.389-0.698-0.629-1.168-0.646c-2.008,0-2.465,3.634-2.465,4.416c0.026,1.424,0.235,2.839,0.62,4.21
						c1.166,3.742,3.476,4.65,5.415,4.65h0.013c1.055-0.013,2.096-0.243,3.058-0.676c0.417-0.165,0.729-0.52,0.839-0.955
						C-281.943-370.767-282.024-371.208-282.275-371.555z"/>
				</g>
				<g id="Grupo_3947" transform="translate(5.889)">
					<path id="Trazado_189" class="st1" d="M-279.824-381.986c-0.016,0-0.016,0.006-0.023,0.006
						c-5.926,1.252-10.562,5.87-11.839,11.79c-0.231,0.988-0.321,2.004-0.268,3.018c0.178,1.017,1.107,1.728,2.136,1.633
						c0.786-0.075,1.444-0.625,1.657-1.385c0.094-0.286,0.146-0.583,0.155-0.884v-0.1c0-1.06,0.235-10.139,8.353-13.573
						c0.133-0.063,0.189-0.222,0.125-0.355c-0.053-0.111-0.176-0.172-0.296-0.145L-279.824-381.986z"/>
				</g>
				<g id="Grupo_3948" transform="translate(10.48 0.258)">
					<path id="Trazado_190" class="st2" d="M-282.724-381.984c-3,0.94-9.264,4.017-9.264,14.5c-0.049,0.722,0.014,1.448,0.187,2.151
						c0.385,0.993,1.503,1.486,2.496,1.101c0.056-0.022,0.111-0.046,0.165-0.073c0.69-0.331,1.123-1.035,1.107-1.8
						c0-0.551-0.262-1.5-0.322-2.039c-0.089-0.738-0.134-1.481-0.134-2.224c0-3.29,0.9-8.381,5.957-11.111
						c0.006-0.006,0.014-0.009,0.022-0.008c0.133-0.06,0.193-0.217,0.134-0.351C-282.435-381.971-282.588-382.035-282.724-381.984z"
						/>
				</g>
				<g id="Grupo_3949" transform="translate(14.53 1.053)">
					<path id="Trazado_191" class="st3" d="M-285.997-381.981c-0.524,0.227-7.939,3.13-5.519,14.627
						c0.107,0.565,0.302,1.109,0.576,1.614c0.522,0.832,1.574,1.156,2.473,0.761c0.653-0.32,1.086-0.962,1.139-1.687
						c0.049-0.954-0.864-2.178-1.21-3.24c-0.442-1.335-0.674-2.731-0.688-4.138c-0.047-2.903,1.243-5.666,3.5-7.492
						c0.113-0.09,0.131-0.255,0.041-0.368c-0.074-0.093-0.202-0.124-0.311-0.076L-285.997-381.981z"/>
				</g>
				<g id="Grupo_3950" transform="translate(0 1.299)">
					<path id="Trazado_192" class="st4" d="M-282.051-381.383c-0.071-0.037-1.373-0.617-6.921-0.617
						c-0.822,0-1.742,0.009-2.779,0.04c-0.11,0.006-0.204,0.08-0.235,0.186c-0.027,0.107,0.013,0.22,0.1,0.287
						c2.376,1.736,4.354,3.959,5.8,6.522c0.096,0.2,0.31,0.316,0.531,0.288c0.194-0.021,0.361-0.146,0.436-0.327
						c0.827-1.807,2.006-3.431,3.468-4.778c0.191-0.181,0.296-0.436,0.286-0.7C-281.377-380.898-281.653-381.26-282.051-381.383z"/>
				</g>
			</g>
		</g>
	</g>
</g>
<g id="Grupo_3954_00000181802397684490214820000004015843106469522864_" transform="translate(0 0)">
	<g id="Grupo_3953_00000049915536469127089900000006159722411004178569_">
		<g id="Grupo_3952_00000091004829394115518850000015675291142902363315_">
			<g id="Grupo_3951_00000000932226641426120490000003331277263245679245_">
				<g id="Grupo_3946_00000094615361021794053790000016216543443262528679_" transform="translate(17.835 4.123)">
					<path id="Trazado_188_00000151501752797086245700000009321340842517919368_" class="st0" d="M-282.275-371.555l-6.034-9.706
						c-0.021-0.029-0.04-0.06-0.057-0.092c-0.264-0.389-0.698-0.629-1.168-0.646c-2.008,0-2.465,3.634-2.465,4.416
						c0.026,1.424,0.235,2.839,0.62,4.21c1.166,3.742,3.476,4.65,5.415,4.65h0.013c1.055-0.013,2.096-0.243,3.058-0.676
						c0.417-0.165,0.729-0.52,0.839-0.955C-281.943-370.767-282.024-371.208-282.275-371.555z"/>
				</g>
				<g id="Grupo_3947_00000007392813297811910500000002497558764269029302_" transform="translate(5.889)">
					<path id="Trazado_189_00000021082201273619261330000009109921367863361965_" class="st1" d="M-279.824-381.986
						c-0.016,0-0.016,0.006-0.023,0.006c-5.926,1.252-10.562,5.87-11.839,11.79c-0.231,0.988-0.321,2.004-0.268,3.018
						c0.178,1.017,1.107,1.728,2.136,1.633c0.786-0.075,1.444-0.625,1.657-1.385c0.094-0.286,0.146-0.583,0.155-0.884v-0.1
						c0-1.06,0.235-10.139,8.353-13.573c0.133-0.063,0.189-0.222,0.125-0.355c-0.053-0.111-0.176-0.172-0.296-0.145
						L-279.824-381.986z"/>
				</g>
				<g id="Grupo_3948_00000147212473238148926120000006716807018612410515_" transform="translate(10.48 0.258)">
					<path id="Trazado_190_00000111900547644582338090000013690176593132231857_" class="st2" d="M-282.724-381.984
						c-3,0.94-9.264,4.017-9.264,14.5c-0.049,0.722,0.014,1.448,0.187,2.151c0.385,0.993,1.503,1.486,2.496,1.101
						c0.056-0.022,0.111-0.046,0.165-0.073c0.69-0.331,1.123-1.035,1.107-1.8c0-0.551-0.262-1.5-0.322-2.039
						c-0.089-0.738-0.134-1.481-0.134-2.224c0-3.29,0.9-8.381,5.957-11.111c0.006-0.006,0.014-0.009,0.022-0.008
						c0.133-0.06,0.193-0.217,0.134-0.351C-282.435-381.971-282.588-382.035-282.724-381.984z"/>
				</g>
				<g id="Grupo_3949_00000070102402810363225400000000269818621484734363_" transform="translate(14.53 1.053)">
					<path id="Trazado_191_00000023969221097567263870000014542038153178061715_" class="st3" d="M-285.997-381.981
						c-0.524,0.227-7.939,3.13-5.519,14.627c0.107,0.565,0.302,1.109,0.576,1.614c0.522,0.832,1.574,1.156,2.473,0.761
						c0.653-0.32,1.086-0.962,1.139-1.687c0.049-0.954-0.864-2.178-1.21-3.24c-0.442-1.335-0.674-2.731-0.688-4.138
						c-0.047-2.903,1.243-5.666,3.5-7.492c0.113-0.09,0.131-0.255,0.041-0.368c-0.074-0.093-0.202-0.124-0.311-0.076
						L-285.997-381.981z"/>
				</g>
				<g id="Grupo_3950_00000069396351327181440570000005076993562044881837_" transform="translate(0 1.299)">
					<path id="Trazado_192_00000044178359717624369430000009758019691040276380_" class="st4" d="M-282.051-381.383
						c-0.071-0.037-1.373-0.617-6.921-0.617c-0.822,0-1.742,0.009-2.779,0.04c-0.11,0.006-0.204,0.08-0.235,0.186
						c-0.027,0.107,0.013,0.22,0.1,0.287c2.376,1.736,4.354,3.959,5.8,6.522c0.096,0.2,0.31,0.316,0.531,0.288
						c0.194-0.021,0.361-0.146,0.436-0.327c0.827-1.807,2.006-3.431,3.468-4.778c0.191-0.181,0.296-0.436,0.286-0.7
						C-281.377-380.898-281.653-381.26-282.051-381.383z"/>
				</g>
			</g>
		</g>
	</g>
</g>
<g id="Grupo_3954_00000182493460809333986890000002371904264267375538_" transform="translate(0 0)">
	<g id="Grupo_3953_00000123401843786181271810000014795143621837055621_">
		<g id="Grupo_3952_00000074418350027943213800000008206735796667722153_">
			<g id="Grupo_3951_00000098185739929173850110000009367420610658897316_">
				<g id="Grupo_3946_00000153668983566295109090000000525095431780250284_" transform="translate(17.835 4.123)">
					<path id="Trazado_188_00000047043162666120989570000009180715401202806688_" class="st0" d="M-282.275-371.555l-6.034-9.706
						c-0.021-0.029-0.04-0.06-0.057-0.092c-0.264-0.389-0.698-0.629-1.168-0.646c-2.008,0-2.465,3.634-2.465,4.416
						c0.026,1.424,0.235,2.839,0.62,4.21c1.166,3.742,3.476,4.65,5.415,4.65h0.013c1.055-0.013,2.096-0.243,3.058-0.676
						c0.417-0.165,0.729-0.52,0.839-0.955C-281.943-370.767-282.024-371.208-282.275-371.555z"/>
				</g>
				<g id="Grupo_3947_00000090979410492853786520000016995241291962745986_" transform="translate(5.889)">
					<path id="Trazado_189_00000175320510269147624700000001690740945065555133_" class="st1" d="M-279.824-381.986
						c-0.016,0-0.016,0.006-0.023,0.006c-5.926,1.252-10.562,5.87-11.839,11.79c-0.231,0.988-0.321,2.004-0.268,3.018
						c0.178,1.017,1.107,1.728,2.136,1.633c0.786-0.075,1.444-0.625,1.657-1.385c0.094-0.286,0.146-0.583,0.155-0.884v-0.1
						c0-1.06,0.235-10.139,8.353-13.573c0.133-0.063,0.189-0.222,0.125-0.355c-0.053-0.111-0.176-0.172-0.296-0.145
						L-279.824-381.986z"/>
				</g>
				<g id="Grupo_3948_00000156561846709066849660000010511692933747576968_" transform="translate(10.48 0.258)">
					<path id="Trazado_190_00000132800349267266387290000003769298990192082831_" class="st2" d="M-282.724-381.984
						c-3,0.94-9.264,4.017-9.264,14.5c-0.049,0.722,0.014,1.448,0.187,2.151c0.385,0.993,1.503,1.486,2.496,1.101
						c0.056-0.022,0.111-0.046,0.165-0.073c0.69-0.331,1.123-1.035,1.107-1.8c0-0.551-0.262-1.5-0.322-2.039
						c-0.089-0.738-0.134-1.481-0.134-2.224c0-3.29,0.9-8.381,5.957-11.111c0.006-0.006,0.014-0.009,0.022-0.008
						c0.133-0.06,0.193-0.217,0.134-0.351C-282.435-381.971-282.588-382.035-282.724-381.984z"/>
				</g>
				<g id="Grupo_3949_00000168812293000536327710000007536802396216261254_" transform="translate(14.53 1.053)">
					<path id="Trazado_191_00000159444895446058266470000002363194386074558901_" class="st3" d="M-285.997-381.981
						c-0.524,0.227-7.939,3.13-5.519,14.627c0.107,0.565,0.302,1.109,0.576,1.614c0.522,0.832,1.574,1.156,2.473,0.761
						c0.653-0.32,1.086-0.962,1.139-1.687c0.049-0.954-0.864-2.178-1.21-3.24c-0.442-1.335-0.674-2.731-0.688-4.138
						c-0.047-2.903,1.243-5.666,3.5-7.492c0.113-0.09,0.131-0.255,0.041-0.368c-0.074-0.093-0.202-0.124-0.311-0.076
						L-285.997-381.981z"/>
				</g>
				<g id="Grupo_3950_00000008850085124147627800000004239133838461679025_" transform="translate(0 1.299)">
					<path id="Trazado_192_00000073713491428458552660000001452720142110609853_" class="st4" d="M-282.051-381.383
						c-0.071-0.037-1.373-0.617-6.921-0.617c-0.822,0-1.742,0.009-2.779,0.04c-0.11,0.006-0.204,0.08-0.235,0.186
						c-0.027,0.107,0.013,0.22,0.1,0.287c2.376,1.736,4.354,3.959,5.8,6.522c0.096,0.2,0.31,0.316,0.531,0.288
						c0.194-0.021,0.361-0.146,0.436-0.327c0.827-1.807,2.006-3.431,3.468-4.778c0.191-0.181,0.296-0.436,0.286-0.7
						C-281.377-380.898-281.653-381.26-282.051-381.383z"/>
				</g>
			</g>
		</g>
	</g>
</g>
<g id="Grupo_3954_00000152249882016050283720000000248484769621561522_" transform="translate(0 0)">
	<g id="Grupo_3953_00000115503983552906497660000016782152666965427113_">
		<g id="Grupo_3952_00000046333272526077809570000012513743650160696225_">
			<g id="Grupo_3951_00000084512116471818143460000015829531702395504568_">
				<g id="Grupo_3946_00000134944044124255299500000001211044841467124403_" transform="translate(17.835 4.123)">
					<path id="Trazado_188_00000051350834439853699110000012671805624200011914_" class="st0" d="M-282.275-371.555l-6.034-9.706
						c-0.021-0.029-0.04-0.06-0.057-0.092c-0.264-0.389-0.698-0.629-1.168-0.646c-2.008,0-2.465,3.634-2.465,4.416
						c0.026,1.424,0.235,2.839,0.62,4.21c1.166,3.742,3.476,4.65,5.415,4.65h0.013c1.055-0.013,2.096-0.243,3.058-0.676
						c0.417-0.165,0.729-0.52,0.839-0.955C-281.943-370.767-282.024-371.208-282.275-371.555z"/>
				</g>
				<g id="Grupo_3947_00000056397585481630510910000012695857322382979760_" transform="translate(5.889)">
					<path id="Trazado_189_00000172409244439926835790000011593521558570888377_" class="st1" d="M-279.824-381.986
						c-0.016,0-0.016,0.006-0.023,0.006c-5.926,1.252-10.562,5.87-11.839,11.79c-0.231,0.988-0.321,2.004-0.268,3.018
						c0.178,1.017,1.107,1.728,2.136,1.633c0.786-0.075,1.444-0.625,1.657-1.385c0.094-0.286,0.146-0.583,0.155-0.884v-0.1
						c0-1.06,0.235-10.139,8.353-13.573c0.133-0.063,0.189-0.222,0.125-0.355c-0.053-0.111-0.176-0.172-0.296-0.145
						L-279.824-381.986z"/>
				</g>
				<g id="Grupo_3948_00000062899497827371858030000000458703961905733046_" transform="translate(10.48 0.258)">
					<path id="Trazado_190_00000096769134070197901640000013355257776413019287_" class="st2" d="M-282.724-381.984
						c-3,0.94-9.264,4.017-9.264,14.5c-0.049,0.722,0.014,1.448,0.187,2.151c0.385,0.993,1.503,1.486,2.496,1.101
						c0.056-0.022,0.111-0.046,0.165-0.073c0.69-0.331,1.123-1.035,1.107-1.8c0-0.551-0.262-1.5-0.322-2.039
						c-0.089-0.738-0.134-1.481-0.134-2.224c0-3.29,0.9-8.381,5.957-11.111c0.006-0.006,0.014-0.009,0.022-0.008
						c0.133-0.06,0.193-0.217,0.134-0.351C-282.435-381.971-282.588-382.035-282.724-381.984z"/>
				</g>
				<g id="Grupo_3949_00000155840917112936856830000012174316319374663072_" transform="translate(14.53 1.053)">
					<path id="Trazado_191_00000041975830765556851250000009650730544811137716_" class="st3" d="M-285.997-381.981
						c-0.524,0.227-7.939,3.13-5.519,14.627c0.107,0.565,0.302,1.109,0.576,1.614c0.522,0.832,1.574,1.156,2.473,0.761
						c0.653-0.32,1.086-0.962,1.139-1.687c0.049-0.954-0.864-2.178-1.21-3.24c-0.442-1.335-0.674-2.731-0.688-4.138
						c-0.047-2.903,1.243-5.666,3.5-7.492c0.113-0.09,0.131-0.255,0.041-0.368c-0.074-0.093-0.202-0.124-0.311-0.076
						L-285.997-381.981z"/>
				</g>
				<g id="Grupo_3950_00000088106621580396589170000010845110207194995334_" transform="translate(0 1.299)">
					<path id="Trazado_192_00000083786362951310080320000014996612171221268367_" class="st4" d="M-282.051-381.383
						c-0.071-0.037-1.373-0.617-6.921-0.617c-0.822,0-1.742,0.009-2.779,0.04c-0.11,0.006-0.204,0.08-0.235,0.186
						c-0.027,0.107,0.013,0.22,0.1,0.287c2.376,1.736,4.354,3.959,5.8,6.522c0.096,0.2,0.31,0.316,0.531,0.288
						c0.194-0.021,0.361-0.146,0.436-0.327c0.827-1.807,2.006-3.431,3.468-4.778c0.191-0.181,0.296-0.436,0.286-0.7
						C-281.377-380.898-281.653-381.26-282.051-381.383z"/>
				</g>
			</g>
		</g>
	</g>
</g>
<g id="Grupo_3954_00000103265910425448226710000012357561121210000029_" transform="translate(0 0)">
	<g id="Grupo_3953_00000043424080166156481800000002149817042683235977_">
		<g id="Grupo_3952_00000075134047199574266240000011898018717718112175_">
			<g id="Grupo_3951_00000133498512560370220840000009389356928057212313_">
				<g id="Grupo_3946_00000158715237346716784920000018272169664476715405_" transform="translate(17.835 4.123)">
					<path id="Trazado_188_00000147941489196436081700000009186794702876268941_" class="st0" d="M21.797,23.707L13.114,9.739
						c-0.03-0.042-0.058-0.086-0.082-0.132c-0.38-0.56-1.004-0.905-1.681-0.93c-2.89,0-3.547,5.23-3.547,6.355
						c0.038,2.049,0.338,4.085,0.892,6.058c1.678,5.385,5.002,6.692,7.792,6.692h0.019c1.518-0.018,3.016-0.35,4.401-0.973
						c0.6-0.237,1.049-0.749,1.207-1.374C22.275,24.84,22.158,24.205,21.797,23.707z"/>
				</g>
				<g id="Grupo_3947_00000031206470673407950540000001392109139694090634_" transform="translate(5.889)">
					<path id="Trazado_189_00000034088983956857217930000004546332720220104620_" class="st1" d="M20.079,6.886
						c-0.023,0-0.023,0.009-0.033,0.009c-8.527,1.802-15.2,8.447-17.037,16.966c-0.332,1.422-0.462,2.884-0.386,4.343
						c0.257,1.464,1.594,2.486,3.074,2.35c1.131-0.107,2.078-0.9,2.385-1.993c0.135-0.411,0.21-0.84,0.223-1.272v-0.144
						c0-1.525,0.338-14.591,12.02-19.532c0.191-0.091,0.272-0.32,0.181-0.51c-0.076-0.16-0.253-0.247-0.427-0.209L20.079,6.886z"/>
				</g>
				<g id="Grupo_3948_00000146468608125230227720000009105231961050229637_" transform="translate(10.48 0.258)">
					<path id="Trazado_190_00000160899272250683268040000006990248019810836876_" class="st2" d="M17.922,7.002
						C13.604,8.355,4.59,12.783,4.59,27.868c-0.071,1.04,0.02,2.084,0.269,3.095c0.554,1.429,2.162,2.139,3.592,1.585
						c0.081-0.031,0.16-0.066,0.238-0.105c0.993-0.476,1.616-1.489,1.593-2.59c0-0.793-0.377-2.159-0.463-2.934
						c-0.128-1.062-0.193-2.131-0.193-3.2c0-4.734,1.295-12.061,8.572-15.989c0.008-0.009,0.02-0.013,0.032-0.012
						c0.192-0.087,0.278-0.312,0.193-0.505C18.337,7.021,18.118,6.929,17.922,7.002z"/>
				</g>
				<g id="Grupo_3949_00000041295438327872721560000001940567632177241994_" transform="translate(14.53 1.053)">
					<path id="Trazado_191_00000106149167508452833170000007494289568753624244_" class="st3" d="M14.99,7.355
						C14.236,7.682,3.565,11.86,7.048,28.404C7.202,29.217,7.482,30,7.877,30.727c0.751,1.197,2.265,1.663,3.559,1.095
						c0.939-0.46,1.563-1.385,1.639-2.428c0.071-1.373-1.243-3.134-1.741-4.663c-0.636-1.922-0.97-3.931-0.99-5.955
						c-0.068-4.177,1.789-8.153,5.037-10.781c0.163-0.13,0.189-0.367,0.059-0.53c-0.107-0.134-0.291-0.178-0.447-0.109L14.99,7.355z
						"/>
				</g>
				<g id="Grupo_3950_00000179634539313596110300000012500882837708545192_" transform="translate(0 1.299)">
					<path id="Trazado_192_00000027574221203588628800000016785255358856678796_" class="st4" d="M14.289,8.324
						c-0.102-0.053-1.976-0.888-9.96-0.888c-1.183,0-2.507,0.013-3.999,0.058C0.172,7.502,0.036,7.609-0.008,7.761
						C-0.047,7.915,0.01,8.078,0.136,8.174c3.419,2.498,6.265,5.698,8.347,9.386c0.139,0.288,0.447,0.455,0.764,0.414
						c0.279-0.03,0.52-0.211,0.627-0.471c1.191-2.601,2.887-4.938,4.991-6.876C15.14,10.367,15.29,10,15.276,9.62
						C15.258,9.022,14.861,8.5,14.289,8.324z"/>
				</g>
			</g>
		</g>
	</g>
</g>
</svg>
