<?xml version="1.0" encoding="utf-8"?>
<!-- Generator: Adobe Illustrator 27.0.1, SVG Export Plug-In . SVG Version: 6.00 Build 0)  -->
<svg version="1.1" id="Grupo_5272" xmlns="http://www.w3.org/2000/svg" xmlns:xlink="http://www.w3.org/1999/xlink" x="0px" y="0px"
	 viewBox="0 0 40 40" style="enable-background:new 0 0 40 40;" xml:space="preserve">
<style type="text/css">
	.st0{fill:#B2292E;}
	.st1{fill:#006241;}
</style>
<g>
	<path id="Trazado_163_00000058561224983207612520000008871360049461310122_" class="st0" d="M26.5,23c0,3.6-2.9,6.5-6.5,6.5
		s-6.5-2.9-6.5-6.5s2.9-6.5,6.5-6.5C23.6,16.7,26.5,19.6,26.5,23L26.5,23"/>
	<g id="Grupo_3939_00000061441156424767850910000004399757775408712855_">
		<path id="Trazado_164_00000133501792661808427950000016549579799078261425_" class="st1" d="M28.5,8.6c-3.1,0.6-6.1,1.4-9,2.5
			c-7.9,3.3-13.5,9.2-12.9,14c0.3,3.2,2.1,5.3,6.2,6.1c-7.5,0.8-12.1-1.5-12.5-6c-0.6-5.4,6.8-12.1,16.5-15.1c1.4-0.4,2.8-0.7,4.3-1
			C23.3,8.7,25.8,8.6,28.5,8.6"/>
		<path id="Trazado_165_00000033339487433227498700000007195656200483738806_" class="st1" d="M11.5,8.6c3.1,0.6,6.1,1.4,9,2.5
			c7.9,3.3,13.5,9.2,12.9,14c-0.3,3.2-2.1,5.3-6.2,6.1c7.5,0.8,12.1-1.5,12.5-6c0.6-5.4-6.8-12.1-16.5-15.1c-1.4-0.4-2.8-0.7-4.3-1
			C16.7,8.7,14.2,8.6,11.5,8.6"/>
	</g>
</g>
</svg>
