<?xml version="1.0" encoding="utf-8"?>
<!-- Generator: Adobe Illustrator 25.4.1, SVG Export Plug-In . SVG Version: 6.00 Build 0)  -->
<svg version="1.1" id="Grupo_5272" xmlns="http://www.w3.org/2000/svg" xmlns:xlink="http://www.w3.org/1999/xlink" x="0px" y="0px"
	 viewBox="0 0 40 40" style="enable-background:new 0 0 40 40;" xml:space="preserve">
<style type="text/css">
	.st0{fill:#00205C;}
</style>
<path id="Trazado_197" class="st0" d="M20.005,7.103c-3.853-0.044-7.653,0.898-11.038,2.738L8.945,9.853
	c-1.509,0.952-2.343,2.682-2.148,4.456c1.28,6.952,5.032,13.207,10.563,17.608c1.517,1.308,3.763,1.308,5.28,0
	c5.529-4.406,9.28-10.66,10.563-17.612c0.194-1.773-0.639-3.502-2.148-4.453L31.034,9.84C27.652,8,23.854,7.058,20.005,7.103z
	 M20.005,8.86c3.534-0.045,7.022,0.81,10.134,2.486c0.928,0.593,1.442,1.66,1.325,2.755c-1.235,6.491-4.753,12.325-9.918,16.446
	c-0.875,0.791-2.207,0.791-3.083,0c-1.369-1.095-2.63-2.318-3.766-3.652l4.738-1.122c2.7-0.632,2.983-3.864,2.983-3.864
	l-2.966,0.701c-0.474,1.065-1.408,1.855-2.536,2.148l-3.304,0.781c-0.685-0.914-1.314-1.868-1.882-2.858l7.968-1.886
	c0.138-0.018,0.265,0.079,0.283,0.218c0.005,0.038,0.001,0.076-0.011,0.112l-0.144,0.505l2.494-0.594
	c1.185-0.299,2.159-1.143,2.623-2.274c0.259-0.56,0.429-1.157,0.505-1.769l-5.433,1.285c-0.511,0.683-1.247,1.163-2.078,1.356
	l-6.96,1.642c-0.521-1.036-0.979-2.102-1.371-3.193l11.271-2.663c0.114-0.02,0.223,0.056,0.243,0.17
	c0.005,0.027,0.004,0.056-0.002,0.083c-0.097,0.541-0.261,1.067-0.489,1.567l4.644-1.098c1.264-0.32,2.302-1.22,2.797-2.426
	c0.275-0.6,0.456-1.24,0.536-1.895L9.08,16.438c-0.229-0.767-0.406-1.549-0.531-2.34c-0.119-1.097,0.394-2.166,1.323-2.761
	C12.984,9.665,16.471,8.813,20.005,8.86L20.005,8.86z"/>
</svg>
