<?xml version="1.0" encoding="utf-8"?>
<!-- Generator: Adobe Illustrator 25.4.1, SVG Export Plug-In . SVG Version: 6.00 Build 0)  -->
<svg version="1.1" id="Grupo_5272" xmlns="http://www.w3.org/2000/svg" xmlns:xlink="http://www.w3.org/1999/xlink" x="0px" y="0px"
	 viewBox="0 0 40 40" style="enable-background:new 0 0 40 40;" xml:space="preserve">
<style type="text/css">
	.st0{fill:#CD2632;}
</style>
<g id="Grupo_3938" transform="translate(0 0)">
	<path id="Trazado_143" class="st0" d="M21.077,20.129L21.077,20.129l-0.143,0.573c0,0-0.143,0-0.286-0.072
		c1.074,4.296,4.081,5.584,7.589,5.584c2.219-0.072,4.296-1.074,5.727-2.721c0.43-1.933,0.501-3.938,0.143-5.942l-4.224,0.859
		c0.215,1.289-0.143,2.649-1.074,3.651c-1.217,1.575-3.436,2.005-5.155,1.002c-1.145-0.716-1.933-1.79-2.434-3.078
		C21.148,19.986,21.077,20.057,21.077,20.129z"/>
	<path id="Trazado_144" class="st0" d="M20.504,19.914L20.504,19.914l0.573-0.215c0,0,0,0.143,0.072,0.286
		c3.15-3.078,2.792-6.3,1.002-9.307c-1.145-1.861-3.078-3.222-5.226-3.58c-1.933,0.573-3.723,1.575-5.226,2.864l2.864,3.293
		c1.002-0.859,2.434-1.145,3.723-0.859c2.005,0.286,3.436,2.005,3.436,4.009c-0.072,1.36-0.573,2.577-1.432,3.58
		C20.361,19.843,20.432,19.914,20.504,19.914z"/>
	<path id="Trazado_145" class="st0" d="M20.504,19.914L20.504,19.914c0.215,0.072,0.358,0.143,0.573,0.215
		c0.072-0.072,0.072-0.072,0.143-0.143c-0.072-0.143-0.072-0.286-0.072-0.286L20.504,19.914z"/>
	<path id="Trazado_146" class="st0" d="M20.504,19.914L20.504,19.914c0.215,0.072,0.358,0.143,0.573,0.215
		c0.072-0.072,0.072-0.072,0.143-0.143c-0.072-0.143-0.072-0.286-0.072-0.286L20.504,19.914z"/>
	<path id="Trazado_147" class="st0" d="M15.063,26.214c-0.788-1.861,0-4.009,1.718-5.012c1.217-0.573,2.506-0.788,3.866-0.573
		c0-0.072,0-0.143-0.072-0.215l0,0l-0.501-0.43c0,0,0.072-0.072,0.215-0.215c-0.788-0.215-1.575-0.358-2.363-0.358
		c-2.649,0.072-5.083,1.718-6.229,4.152c-1.074,1.933-1.217,4.224-0.501,6.372c1.432,1.36,3.15,2.434,5.083,3.078l1.432-4.081
		C16.423,28.505,15.493,27.503,15.063,26.214z"/>
	<path id="Trazado_148" class="st0" d="M21.077,20.129L21.077,20.129c-0.143,0.143-0.358,0.286-0.501,0.43
		c0,0.072,0,0.143,0.072,0.215c0.215,0,0.286,0.072,0.286,0.072L21.077,20.129z"/>
	<path id="Trazado_149" class="st0" d="M21.077,20.129L21.077,20.129c-0.143,0.143-0.358,0.286-0.501,0.43
		c0,0.072,0,0.143,0.072,0.215c0.215,0,0.286,0.072,0.286,0.072L21.077,20.129z"/>
	<path id="Trazado_150" class="st0" d="M20.576,20.559L20.576,20.559c0-0.215-0.072-0.43-0.072-0.644
		c-0.072,0-0.143-0.072-0.143-0.072c-0.143,0.143-0.215,0.215-0.215,0.215L20.576,20.559z"/>
	<path id="Trazado_151" class="st0" d="M20.576,20.559L20.576,20.559c0-0.215-0.072-0.43-0.072-0.644
		c-0.072,0-0.143-0.072-0.143-0.072c-0.143,0.143-0.215,0.215-0.215,0.215L20.576,20.559z"/>
	<path id="Trazado_152" class="st0" d="M20.504,19.914c0.072,0.215,0.072,0.43,0.143,0.573c0.143-0.143,0.286-0.286,0.43-0.43
		C20.862,20.057,20.647,19.986,20.504,19.914z"/>
	<path id="Trazado_153" class="st0" d="M20.504,19.914c0.072,0.215,0.072,0.43,0.143,0.573c0.143-0.143,0.286-0.286,0.43-0.43
		C20.862,20.057,20.647,19.986,20.504,19.914z"/>
	<path id="Trazado_154" class="st0" d="M20.504,19.914c0.072,0.215,0.072,0.43,0.143,0.573c0.143-0.143,0.286-0.286,0.43-0.43
		C20.862,20.057,20.647,19.986,20.504,19.914z"/>
	<path id="Trazado_155" class="st0" d="M26.589,19.055c1.36-0.143,2.577-0.788,3.436-1.79c1.36-1.432,1.718-3.651,0.716-5.369
		c-0.501-0.788-1.145-1.432-1.933-1.933l-2.649,1.36C31.243,14.33,26.589,19.055,26.589,19.055z"/>
	<path id="Trazado_156" class="st0" d="M28.809,9.891L28.522,8.96l-0.716-2.076l-2.506,1.503l0.859,2.935L28.809,9.891z"/>
	<path id="Trazado_157" class="st0" d="M10.266,19.914c0.072-5.942,6.515-4.224,6.515-4.224c-0.788-1.074-1.933-1.861-3.293-2.076
		c-0.358-0.072-0.716-0.072-1.074-0.072c-1.647-0.072-3.15,0.716-4.009,2.148c-0.43,0.859-0.644,1.718-0.716,2.649L10.266,19.914z"
		/>
	<path id="Trazado_158" class="st0" d="M10.266,19.914L10.266,19.914L7.76,18.339l-0.644,0.716l-1.432,1.647l2.577,1.432
		L10.266,19.914z"/>
	<path id="Trazado_159" class="st0" d="M10.266,19.914L10.266,19.914L7.76,18.339L10.266,19.914z"/>
	<path id="Trazado_160" class="st0" d="M10.266,19.914L10.266,19.914L7.76,18.339L10.266,19.914z"/>
	<path id="Trazado_161" class="st0" d="M18.786,25.785c-0.573,1.217-0.644,2.649-0.143,3.866c0.573,1.933,2.291,3.293,4.296,3.365
		c0.931-0.072,1.861-0.286,2.649-0.716l0.143-3.007C20.504,32.157,18.786,25.785,18.786,25.785z"/>
	<path id="Trazado_162" class="st0" d="M25.659,29.293L25.516,32.3l0.931,0.215l2.148,0.43v-2.935L25.659,29.293z"/>
</g>
</svg>
