<?xml version="1.0" encoding="utf-8"?>
<!-- Generator: Adobe Illustrator 25.4.1, SVG Export Plug-In . SVG Version: 6.00 Build 0)  -->
<svg version="1.1" id="Capa_1" xmlns="http://www.w3.org/2000/svg" xmlns:xlink="http://www.w3.org/1999/xlink" x="0px" y="0px"
	 viewBox="0 0 40 40" style="enable-background:new 0 0 40 40;" xml:space="preserve">
<style type="text/css">
	.st0{display:none;}
	.st1{display:inline;}
	.st2{fill:#FFD600;}
	.st3{fill:#5A5A59;}
	.st4{fill:#E2E2E2;}
	.st5{fill:#C3C3C3;}
	.st6{fill:#A3A3A2;}
	.st7{fill:#808080;}
	.st8{fill:#DD2C3D;}
	.st9{display:inline;fill:#AF272F;}
	.st10{display:inline;fill:#006341;}
	.st11{fill:#FFC629;}
	.st12{fill:#003DA6;}
	.st13{fill:#60269E;}
	.st14{fill:#F5333F;}
	.st15{fill:#3DA154;}
	.st16{fill:#6F55A3;}
	.st17{fill:#39B564;}
	.st18{fill:#1D7EC1;}
	.st19{fill:#FEC15D;}
	.st20{opacity:0.78;}
	.st21{fill:#EF8D29;}
	.st22{fill:#054371;}
	.st23{fill:#17074C;}
	.st24{fill:#8E0507;}
	.st25{fill:#166330;}
	.st26{fill:#BCBCBD;}
	.st27{fill:#FF0021;}
	.st28{fill:#AA182C;}
	.st29{fill:#F5B335;}
	.st30{fill:#9E28B5;}
	.st31{fill:#D50057;}
	.st32{fill:#00B2E3;}
	.st33{fill:#C2D500;}
	.st34{fill:#797B7B;}
	.st35{fill:#FFFFFF;}
	.st36{fill:#EE3F2D;}
	.st37{fill:#DB0032;}
	.st38{fill-rule:evenodd;clip-rule:evenodd;fill:#DB0032;}
	.st39{fill:#FFD300;}
	.st40{fill:#00539E;}
	.st41{fill:#EA1635;}
	.st42{fill:#21B35E;}
</style>
<g id="Capa_1_1_" class="st0">
	<g class="st1">
		<g>
			<path class="st2" d="M230.2,92.8c0,62.2-28.3,117.5-72.4,154.5c-4.1,3.4-4,8.5,0,9.8c4.2,1.4,8.6-2.4,11.6-5
				c49-43,80.1-105.9,80.6-176.1c0.9-130.5-106.1-237.6-236.6-238.3c-111.6-0.6-191.6,73.2-219.5,142.4
				c-12.7,31.5,11.3,68.2,45.3,67.9c6.1-15.6,37.1-160.1,190.7-156C140.5-105.1,230.2-18.1,230.2,92.8"/>
			<path class="st3" d="M-99.4,19.7c0-15,12.2-27.2,27.2-27.2s27.3,12.2,27.3,27.2c0,15.1-12.2,27.2-27.3,27.2
				C-87.2,46.9-99.4,34.6-99.4,19.7"/>
			<path class="st4" d="M-134.8,139.2c41.7,31.2,93.5,49.7,149.5,49.9c58.4,0.2,110.9-18.4,153.7-51.7c0,0,9.8-6.7,2-13.1
				c-5.6-4.6-13.8,0.5-17.8,3.3c-39.1,27.1-85.8,44.3-136.9,46c-55.6,1.9-107.6-14.4-150.3-43.6c0,0-4.4-3.8-5.7,1.2
				C-141,134.6-134.8,139.2-134.8,139.2"/>
			<path class="st5" d="M115.4,111c-28.8,16-60.7,27.9-95.5,32.1c-55.2,6.8-109.5-5.6-154.6-30.9c0,0-4.7-3.4-5.6,1.7
				c-0.5,3.2,6.1,7.4,6.1,7.4c44.3,27.4,98.5,41.9,154.4,37.2c40.2-3.4,77.4-16.1,109.7-35.7c0,0,4.9-2.2,11.9-7.5
				c3.5-2.7,4.6-9.2-0.4-13.2s-9.3-1-12.7,0.8C127.4,103.6,123.4,106.5,115.4,111"/>
			<path class="st6" d="M86.6,88.4c-20.2,10.4-41.9,18.7-65.3,23.5c-54.5,11.4-109.1,4.2-156.2-17.2c0,0-5-3-5.4,2.2
				c-0.3,3.3,6.7,6.8,6.7,6.8c46.5,23.5,101.2,32.9,156.5,23.5c28.5-4.9,55.1-14.3,79-27.5c0,0,6.7-3.5,10.7-6
				c4.3-2.7,6.6-8.2,0-13.3c-5-3.8-11.3,0.1-14.1,1.5C97.3,82.5,91,86.1,86.6,88.4"/>
			<path class="st7" d="M56.4,66.2c-11.7,5.8-24,10.6-36.9,14.6c-53.2,16.3-105.8,14.5-154.6-2.5c0,0-5.3-2.5-5.2,2.6
				c0,3.3,7.3,6.2,7.3,6.2c48.4,19.2,101.3,23.2,155.5,8.8c17.3-4.6,33.7-10.9,49-18.6c0,0,5.2-2.8,10-5.6c3-1.8,7-7.8,0.9-12.6
				c-3.9-3-10.6-1.2-12.7,0C67.7,60.5,61,64,56.4,66.2"/>
			<path class="st3" d="M15.4,49.6c-51.7,20.7-100.6,24-150.7,11.2c0,0-5.5-2.1-5,3.1c0.3,3.3,7.8,5.6,7.8,5.6
				c49.8,15.1,99.3,13.9,152.1-5c7.7-2.8,15.2-5.8,22.4-9.2c0,0,7.3-3.5,8.9-4.3s8.6-6.3,1-12.2c-5.5-4.2-13.8,0.8-16.4,2
				C29.8,43.6,20.4,47.6,15.4,49.6"/>
		</g>
	</g>
</g>
<g id="Capa_2_1_" class="st0">
	<g class="st1">
		<path class="st8" d="M37.7,42.2c0,0,12.7,39.3,40.2,53.6c23.8,12.4,54.3,14.7,82.7-16.2C186,52,178.3,21.5,178.3,21.5l68-13.3
			c0,0,9.8,49.3-2.6,95.1c0,0-34.7,44-91.9,44C93,147.4,42.3,124.1,28,45.6L37.7,42.2z"/>
		<path class="st8" d="M22,49c0,0,27.7-30.6,26.3-61.6C47.1-39.4,33.8-66.9-7.1-76.1c-36.6-8.2-59.2,13.7-59.2,13.7l-45.5-52.3
			c0,0,37.8-33.1,83.6-45.3c0,0,55.5,8,84.1,57.5C85.3-51.6,90.6,3.9,29.6,55.6L22,49z"/>
		<path class="st8" d="M35.7,59c0,0-40.3-8.6-66.5,8c-22.6,14.4-39.9,39.7-27.3,79.7c11.2,35.8,41.5,44.4,41.5,44.4l-22.5,65.6
			c0,0-47.6-16.2-81-49.8c0,0-20.8-52.1,7.8-101.6c29.4-51,74.9-83.2,150.1-56.3L35.7,59z"/>
		<path class="st8" d="M192.7-83.5c7.6,14.8,19.8,45.6-11.9,86.1c-21.7,27.7-55,29-55,29s75-75.2-6.6-123.9l42.1-22.1
			C161.4-114.4,184-100.4,192.7-83.5z"/>
		<polygon class="st8" points="119.2,-92.2 161.4,-114.4 156.5,-129.1 145.6,-162.3 105.3,-138.6 		"/>
		<path class="st8" d="M-164.2-21.8c9-14,29.6-39.9,80.5-32.7c34.8,4.9,52.6,33.1,52.6,33.1S-133.6-48.8-135,46.1l-40.2-25.4
			C-175.3,20.8-174.5-5.8-164.2-21.8z"/>
		<polygon class="st8" points="-135,46.1 -175.3,20.8 -185.7,32.4 -208.9,58.4 -168.2,81.5 		"/>
		<path class="st8" d="M67.2,255.4c-16.7-0.8-49.4-5.7-68.6-53.4C-14.5,169.4,1,139.9,1,139.9s27.6,102.5,110.6,56.2l-1.9,47.6
			C109.6,243.6,86.2,256.2,67.2,255.4z"/>
		<polygon class="st8" points="111.5,196.1 109.6,243.6 124.8,246.8 159,254 158.7,207.1 		"/>
	</g>
</g>
<g id="Capa_3" class="st0">
	<path class="st9" d="M95.1,83.4c0,41.5-33.6,75.1-75.1,75.1c-41.4,0-75.1-33.6-75.1-75.1S-21.5,8.2,20,8.2S95.1,41.9,95.1,83.4"/>
	<path class="st10" d="M117.4-84.1C58.9-73.9,13.9-55.4,13.9-55.4c-91.2,38.5-155.5,105.6-150,162.2c3.6,37,23.4,61.4,71.7,70.2
		c-86.9,9-140.1-17.5-145.2-69.7c-6.1-63,78.4-139.8,190.6-174.9c0,0,21.3-6.6,49.3-11C54.6-82.4,83.5-84.1,117.4-84.1"/>
	<path class="st10" d="M-77.4-84.1C-18.9-73.9,26.2-55.4,26.2-55.4c91.2,38.5,155.4,105.6,150,162.2c-3.6,37-23.4,61.4-71.7,70.2
		c86.9,9,140.2-17.5,145.2-69.7c6.1-63-78.4-139.8-190.6-174.9c0,0-21.3-6.6-49.3-11C-14.7-82.4-43.5-84.1-77.4-84.1"/>
</g>
<g id="Capa_4" class="st0">
	<g class="st1">
		<g>
			<g>
				<g>
					<g>
						<g>
							<g>
								<path class="st11" d="M140.6-20.8L247,147.6c0,0,8.9,11.1-13.7,21.5c0,0-103.6,53.3-140.2-62.6c0,0-26.7-88.9,6.9-126.3
									C100-19.8,122.2-46.8,140.6-20.8z"/>
							</g>
							<g>
								<g>
									<path class="st12" d="M94.2-100.8c-0.8,0.2-1.7,0.4-2.5,0.5C33.4-87.9-81.8-44.4-110,107.9c0,0-10,51.8,21.7,60.8
										c37.6,10.5,39.7-38.6,39.7-38.6S-53.2-37.6,93.7-94.8c0.5-0.2,1.1-0.4,1.6-0.6c0.8-0.6,1.3-1.5,1.3-2.5
										C96.7-99.3,95.6-100.5,94.2-100.8z"/>
								</g>
							</g>
							<g>
								<g>
									<path class="st13" d="M126.6-98.3c-0.9,0.2-1.9,0.4-2.9,0.7C74.4-85.3-37.7-37.8-36.8,141.6c0,0-4.2,50.4,31.1,51.7
										c39.8,1.5,28.3-50.7,28.3-50.7S-14.7-28,126.1-93.4c0.4-0.2,0.8-0.4,1.3-0.6c0.6-0.5,1-1.2,1-2
										C128.3-97,127.6-97.9,126.6-98.3z"/>
								</g>
							</g>
							<g>
								<g>
									<g>
										<path class="st14" d="M136.7-85.5c-0.5,0.1-1.1,0.3-1.6,0.4c-0.5,0.2-0.9,0.4-1.5,0.6C95.2-69.6-1.9-13.6,39.4,164.6
											c0,0,9.4,40.3,46.3,28.6c29.5-9.4,9.6-51.8,9.6-51.8S24,5.9,136.2-80.5c0.7-0.5,1.4-1.1,2.1-1.6c0.1-0.3,0.3-0.6,0.3-1
											C138.5-84.2,137.8-85.1,136.7-85.5z"/>
									</g>
								</g>
							</g>
							<g>
								<g>
									<g>
										<path class="st15" d="M-46.2-67.9c0,0-26.4-13.4-160.9-9.1h0.1c-0.6,0-1.2,0.1-1.8,0.1c-0.6,0.3-1,0.9-1,1.6
											c0,0.4,0.2,0.9,0.5,1.2c0.3,0.2,0.6,0.4,0.8,0.6h-0.1C-191-60.9-127-11.8-102.9,52.2c0,0,12.3-49.2,66.2-98.3
											C-36.7-46-26.7-59.9-46.2-67.9z"/>
									</g>
								</g>
							</g>
							<path class="st14" d="M136.6-86.1c-0.5,0.1-1.1,0.3-1.6,0.4c-0.5,0.2-0.9,0.4-1.5,0.6c-27.9,10.8-86.7,43.4-101,128.7
								c13.4,3,26.9,5.7,40.5,8.1C71.7,9.1,84.4-41.2,136.1-81c0.7-0.5,1.4-1,2.1-1.6c0.1-0.3,0.3-0.6,0.3-1
								C138.4-84.8,137.6-85.8,136.6-86.1z"/>
							<path class="st16" d="M126.6-97.9c-0.9,0.2-1.9,0.5-2.9,0.7C86.6-88.1,14.2-58.9-19.2,31.1c13.9,4,28,7.7,42.1,11
								c9.6-49,36.2-104,103.2-135.1c0.4-0.2,0.8-0.4,1.3-0.6c0.6-0.5,1-1.1,1-2C128.4-96.6,127.6-97.5,126.6-97.9z"/>
							<path class="st17" d="M-46.2-67.9c0,0-26.4-13.4-160.9-9.1h0.1c-0.6,0-1.2,0.1-1.8,0.1c-0.6,0.3-1,0.9-1,1.6
								c0,0.4,0.2,0.9,0.5,1.2c0.3,0.2,0.6,0.4,0.8,0.6h-0.1c10.6,7.6,37.9,28.4,63.2,57.6C-125.1-6.6-104.3,2-83.2,9.9
								c10.1-16.5,25-36.1,46.6-55.8C-36.7-46-26.7-59.9-46.2-67.9z"/>
							<path class="st18" d="M94.2-100.4c-0.8,0.2-1.7,0.4-2.5,0.5C48-90.6-27.8-63.8-74.8,13.2c15.3,5.5,30.8,10.6,46.5,15.3
								C-9.8-17.7,25.8-67.9,93.8-94.4c0.5-0.2,1.1-0.4,1.6-0.6c0.8-0.6,1.3-1.5,1.3-2.5C96.7-98.9,95.6-100.1,94.2-100.4z"/>
							<path class="st19" d="M140.6-21.3c-18.4-25.8-40.6,1.1-40.6,1.1C83.9-2.3,81.7,27.4,83.7,53.5c36.4,6,73.5,9.7,111.2,11.1
								L140.6-21.3z"/>
							<g class="st20">
								<g>
									<g>
										<path class="st21" d="M92.9,107.2c0,0-10.1-33.5-10.1-68.2l0,0c0-21.8,4-44.2,17.1-58.8l0,0c0.1,0,10.2-12.5,23-12.6l0,0
											c6.2,0,12.8,3,18.9,11.5l0,0l-0.6,0.4l0.6-0.4l106.3,168.5c0.1,0.1,1.9,2.4,1.9,5.9l0,0c0,4.6-3.1,10.9-15.8,16.7l0,0
											c0,0-23.9,12.3-52.9,12.3l0,0c-0.1,0-0.1,0-0.2,0l0,0C149.6,182.6,112,167.8,92.9,107.2L92.9,107.2z M107.6-24.8
											c-4,3-6.5,6-6.5,6.1l0,0C88.3-4.5,84.3,17.5,84.3,39.1l0,0c0,17.2,2.5,34.1,5,46.8l0,0c2.5,12.7,5,20.9,5,20.9l0,0
											c19,60.1,55.8,74.2,86.9,74.3l0,0c14.3,0,27.3-3,36.9-6.1l0,0c9.5-3,15.4-6.1,15.4-6.1l0,0c12.5-5.8,15-11.5,15-15.3l0,0
											c0-1.5-0.4-2.8-0.8-3.6l0,0c-0.4-0.9-0.8-1.3-0.8-1.4l0,0L140.6-20c-5.9-8.2-12-10.8-17.6-10.8l0,0l0,0l0,0
											C117.1-30.8,111.6-27.8,107.6-24.8L107.6-24.8z"/>
									</g>
								</g>
								<g>
									<g>
										<g>
											<path class="st22" d="M-77.7,171.2c-3.1,0-6.5-0.5-10.2-1.5l0,0c-20-5.7-23.8-27.8-23.8-43.7l0,0
												c0-10.1,1.5-17.9,1.5-17.9l0,0C-81.9-44.6,33.7-88.2,92.1-100.6l0,0c0.8-0.2,1.7-0.4,2.5-0.5l0,0h0.2h0.1
												c1.7,0.4,3.2,1.8,3.2,3.7l0,0c0,1.3-0.7,2.4-1.7,3.1l0,0l-0.1,0.1h-0.1c-0.5,0.2-1.1,0.4-1.5,0.6l0,0
												C-43.1-40-47.2,111.4-47.2,128.9l0,0c0,1.1,0,1.6,0,1.7l0,0c0,0-0.4,10.1-4.4,20.3l0,0C-55.6,161-63.3,171.2-77.7,171.2
												L-77.7,171.2L-77.7,171.2L-77.7,171.2z M92.4-99c-58.2,12.4-173,55.7-201.1,207.5l0,0c0,0-1.5,7.7-1.5,17.6l0,0
												c0,15.9,3.8,37.1,22.7,42.3l0,0c3.6,1,6.8,1.4,9.8,1.4l0,0c13.6,0,20.7-9.7,24.7-19.5l0,0c3.8-9.9,4.3-19.7,4.3-19.7l0,0
												c0,0,0-0.6,0-1.7l0,0c0-17.6,4-169.8,142.8-223.8l0,0c0.5-0.2,1-0.4,1.5-0.6l0,0c0.6-0.5,1-1.1,1-1.8l0,0
												c0-1.1-0.7-1.9-1.8-2.2l0,0C94-99.4,93.2-99.2,92.4-99L92.4-99z M94.6-99.6l0.2-0.7L94.6-99.6L94.6-99.6z"/>
										</g>
									</g>
								</g>
								<g>
									<g>
										<g>
											<path class="st23" d="M-3.4,194.6c-0.6,0-1.1,0-1.7,0l0,0c-14.6-0.5-22.7-9.4-27-19.5l0,0c-4.3-10.1-5-21.7-5-28.1l0,0
												c0-3,0.1-4.9,0.1-4.8l0,0c0-0.7,0-1.5,0-2.2l0,0C-37-38.1,74.8-85.7,124.1-97.9l0,0c1-0.3,2-0.5,2.9-0.7l0,0l0.2-0.1
												l0.2,0.1c1.3,0.4,2.3,1.6,2.3,3.1l0,0c0,1.1-0.6,2-1.3,2.5l0,0l-0.1,0.1h-0.1c-0.4,0.2-0.8,0.4-1.3,0.6l0,0
												C35.3-49.6,19.4,37.6,19.4,93.1l0,0c0,14.7,1.1,27.1,2.2,35.9l0,0c1.1,8.8,2.2,13.8,2.2,13.8l0,0c0,0,1.6,7,1.6,15.9l0,0
												c0,7.5-1.1,16.4-5.3,23.5l0,0C16,189.5,8.7,194.6-3.4,194.6L-3.4,194.6L-3.4,194.6L-3.4,194.6z M124.4-96.4
												C75.5-84.2-35.4-37.4-35.5,139.9l0,0c0,0.7,0,1.4,0,2.2l0,0c0,0-0.2,1.8-0.2,4.8l0,0c0,6.3,0.7,17.7,4.9,27.5l0,0
												c4.2,9.8,11.7,18,25.7,18.6l0,0c0.5,0,1.1,0,1.6,0l0,0c23.2,0,27.3-19.4,27.4-34.2l0,0c0-8.7-1.5-15.6-1.5-15.6l0,0
												c0-0.1-4.5-20.6-4.5-50.1l0,0c0-55.7,16-143.9,108.4-186.8l0,0c0.4-0.2,0.8-0.4,1.2-0.5l0,0c0.4-0.4,0.6-0.8,0.6-1.3l0,0
												c0-0.7-0.4-1.3-1.1-1.6l0,0C126.2-96.8,125.3-96.6,124.4-96.4L124.4-96.4z M126.9-97.1l0.3-0.7L126.9-97.1L126.9-97.1z"
												/>
										</g>
									</g>
								</g>
								<g>
									<g>
										<g>
											<g>
												<path class="st24" d="M39.3,165.1c-7-30.3-10-57-10-80.6l0,0C29.3-31.4,102-72.5,134-84.9l0,0c0.5-0.2,1-0.4,1.5-0.6
													l0,0c0.5-0.1,1.1-0.3,1.6-0.4l0,0h0.2l0.2,0.1c1.3,0.5,2.3,1.6,2.3,3.1l0,0c0,0.5-0.1,1-0.3,1.3l0,0l-0.1,0.2l-0.2,0.1
													c-0.7,0.5-1.4,1.1-2.1,1.6l0,0C87.9-41.6,74.2,5.6,74.2,46.8l0,0c0,26.2,5.6,49.8,11.1,66.9l0,0
													c5.6,17.1,11.1,27.6,11.1,27.7l0,0c0,0.1,6.7,14.1,6.7,28l0,0c0.1,10.3-3.8,20.7-16.7,24.8l0,0c-4.7,1.5-9.1,2.1-13,2.1
													l0,0C46.4,196.2,39.3,165.1,39.3,165.1L39.3,165.1z M136-84c-0.5,0.2-1,0.3-1.4,0.5l0,0C102.9-71.2,30.8-30.7,30.8,84.4
													l0,0c0,23.5,3,50.1,10,80.3l0,0c0,0,0.4,1.9,1.5,4.7l0,0c1.1,2.8,2.8,6.6,5.3,10.4l0,0c5,7.6,13.2,15,26,15l0,0
													c3.8,0,7.9-0.6,12.5-2.1l0,0c12.2-3.9,15.6-13.4,15.7-23.3l0,0c0-6.7-1.6-13.6-3.3-18.7l0,0c-1.6-5.2-3.2-8.6-3.2-8.6
													l0,0c0,0-22.4-42.6-22.4-95.3l0,0c0-41.4,13.9-89.3,63.5-127.5l0,0c0.7-0.5,1.3-1,2-1.5l0,0c0.1-0.2,0.1-0.3,0.1-0.5
													l0,0c0-0.7-0.4-1.3-1.1-1.7l0,0C136.8-84.1,136.3-84,136-84L136-84z M137.1-84.3l0.3-0.7L137.1-84.3L137.1-84.3z"/>
											</g>
										</g>
									</g>
								</g>
								<g>
									<g>
										<g>
											<g>
												<path class="st25" d="M-103,53c-24-63.7-87.9-112.9-105.6-125.6l0,0v-0.1c-0.2-0.2-0.5-0.3-0.7-0.5l0,0h-0.1v-0.1
													c-0.4-0.5-0.6-1-0.6-1.7l0,0c0-1,0.6-1.8,1.4-2.3l0,0h0.2h0.2c0.6,0,1.1,0,1.7-0.1l0,0l0,0c18.4-0.6,34.7-0.8,49.3-0.8
													l0,0c89.8,0,110.8,9.5,111.9,10l0,0c9.8,4,12.6,9.8,12.6,14.5l0,0c0,4.9-2.7,8.5-2.7,8.6l0,0v0.1h-0.1
													C-75.9-8.4-92.8,28.4-98.8,44.4l0,0c-2,5.4-2.7,8.4-2.7,8.4l0,0l-0.6,2.4L-103,53L-103,53z M-102.4,50.4
													C-99.3,40.2-84-2.9-36.7-46l0,0c0.1-0.2,0.6-1,1.2-2.1l0,0c0.6-1.4,1.2-3.4,1.2-5.5l0,0c0-4.2-2.1-9.2-11.6-13.1l0,0
													l0.3-0.7l-0.4,0.7c0,0-1.2-0.6-4.4-1.5l0,0c-3.3-0.9-8.5-2.2-16.7-3.4l0,0c-16.3-2.5-44.2-5-90.2-5l0,0
													c-14.5,0-30.8,0.2-49.1,0.8l0,0l0,0c-0.5,0-1,0-1.6,0l0,0c-0.3,0.2-0.5,0.5-0.5,0.9l0,0c0,0.2,0.1,0.4,0.2,0.6l0,0
													c0.2,0.2,0.5,0.3,0.7,0.5l0,0l0,0C-189.9-61-127.2-12.8-102.4,50.4L-102.4,50.4z"/>
											</g>
										</g>
									</g>
								</g>
							</g>
						</g>
					</g>
				</g>
			</g>
		</g>
	</g>
</g>
<g id="Capa_5" class="st0">
	<g class="st1">
		<g>
			<g>
				<g>
					<g>
						<path class="st26" d="M91.3-6.8c0-14.5,10.3-20.5,22.9-13.2l94.1,54.4c12.6,7.3,12.6,19.2,0,26.4l-94.1,54.4
							c-12.6,7.3-22.9,1.3-22.9-13.2V-6.8z"/>
					</g>
				</g>
			</g>
			<g>
				<g>
					<g>
						<g>
							<path class="st26" d="M-178.4-156c0-14.5,10.3-20.5,22.9-13.2l94.2,54.4c12.6,7.3,12.6,19.2,0,26.4L-155.5-34
								c-12.6,7.3-22.9,1.3-22.9-13.2V-156z"/>
						</g>
					</g>
				</g>
				<g>
					<g>
						<g>
							<path class="st26" d="M-178.4-6.8c0-14.5,10.3-20.5,22.9-13.2l94.2,54.4c12.6,7.3,12.6,19.2,0,26.4l-94.2,54.4
								c-12.6,7.3-22.9,1.3-22.9-13.2V-6.8z"/>
						</g>
					</g>
				</g>
				<g>
					<g>
						<g>
							<path class="st26" d="M-178.4,142.6c0-14.5,10.3-20.5,22.9-13.2l94.2,54.4c12.6,7.3,12.6,19.2,0,26.4l-94.2,54.4
								c-12.6,7.3-22.9,1.3-22.9-13.2V142.6z"/>
						</g>
					</g>
				</g>
			</g>
			<g>
				<g>
					<g>
						<g>
							<path class="st26" d="M-46.9-80.2c0-14.6,10.3-20.5,22.9-13.2L70.2-39c12.6,7.3,12.6,19.2,0,26.4L-24,41.8
								C-36.6,49-46.9,43-46.9,28.5V-80.2z"/>
						</g>
					</g>
				</g>
				<g>
					<g>
						<g>
							<path class="st26" d="M-46.9,66.9c0-14.5,10.3-20.5,22.9-13.2L70.2,108c12.6,7.3,12.6,19.2,0,26.4L-24,188.8
								c-12.6,7.3-22.9,1.3-22.9-13.2V66.9z"/>
						</g>
					</g>
				</g>
			</g>
		</g>
	</g>
</g>
<g id="Capa_6" class="st0">
	<g class="st1">
		<g>
			<g>
				<g>
					<g>
						<path class="st27" d="M91.3-6.8c0-14.5,10.3-20.5,22.9-13.2l94.1,54.4c12.6,7.3,12.6,19.2,0,26.4l-94.1,54.4
							c-12.6,7.3-22.9,1.3-22.9-13.2V-6.8z"/>
					</g>
				</g>
			</g>
			<g>
				<g>
					<g>
						<g>
							<path class="st27" d="M-178.4-156c0-14.5,10.3-20.5,22.9-13.2l94.2,54.4c12.6,7.3,12.6,19.2,0,26.4L-155.5-34
								c-12.6,7.3-22.9,1.3-22.9-13.2V-156z"/>
						</g>
					</g>
				</g>
				<g>
					<g>
						<g>
							<path class="st27" d="M-178.4-6.8c0-14.5,10.3-20.5,22.9-13.2l94.2,54.4c12.6,7.3,12.6,19.2,0,26.4l-94.2,54.4
								c-12.6,7.3-22.9,1.3-22.9-13.2V-6.8z"/>
						</g>
					</g>
				</g>
				<g>
					<g>
						<g>
							<path class="st27" d="M-178.4,142.6c0-14.5,10.3-20.5,22.9-13.2l94.2,54.4c12.6,7.3,12.6,19.2,0,26.4l-94.2,54.4
								c-12.6,7.3-22.9,1.3-22.9-13.2V142.6z"/>
						</g>
					</g>
				</g>
			</g>
			<g>
				<g>
					<g>
						<g>
							<path class="st27" d="M-46.9-80.2c0-14.6,10.3-20.5,22.9-13.2L70.2-39c12.6,7.3,12.6,19.2,0,26.4L-24,41.8
								C-36.6,49-46.9,43-46.9,28.5V-80.2z"/>
						</g>
					</g>
				</g>
				<g>
					<g>
						<g>
							<path class="st27" d="M-46.9,66.9c0-14.5,10.3-20.5,22.9-13.2L70.2,108c12.6,7.3,12.6,19.2,0,26.4L-24,188.8
								c-12.6,7.3-22.9,1.3-22.9-13.2V66.9z"/>
						</g>
					</g>
				</g>
			</g>
		</g>
	</g>
</g>
<g id="Capa_7" class="st0">
	<g class="st1">
		<g>
			<g>
				<g>
					<g>
						<path class="st28" d="M91.3-6.8c0-14.5,10.3-20.5,22.9-13.2l94.1,54.4c12.6,7.3,12.6,19.2,0,26.4l-94.1,54.4
							c-12.6,7.3-22.9,1.3-22.9-13.2V-6.8z"/>
					</g>
				</g>
			</g>
			<g>
				<g>
					<g>
						<g>
							<path class="st29" d="M-178.4-156c0-14.5,10.3-20.5,22.9-13.2l94.2,54.4c12.6,7.3,12.6,19.2,0,26.4L-155.5-34
								c-12.6,7.3-22.9,1.3-22.9-13.2V-156z"/>
						</g>
					</g>
				</g>
				<g>
					<g>
						<g>
							<path class="st30" d="M-178.4-6.8c0-14.5,10.3-20.5,22.9-13.2l94.2,54.4c12.6,7.3,12.6,19.2,0,26.4l-94.2,54.4
								c-12.6,7.3-22.9,1.3-22.9-13.2V-6.8z"/>
						</g>
					</g>
				</g>
				<g>
					<g>
						<g>
							<path class="st31" d="M-178.4,142.6c0-14.5,10.3-20.5,22.9-13.2l94.2,54.4c12.6,7.3,12.6,19.2,0,26.4l-94.2,54.4
								c-12.6,7.3-22.9,1.3-22.9-13.2V142.6z"/>
						</g>
					</g>
				</g>
			</g>
			<g>
				<g>
					<g>
						<g>
							<path class="st32" d="M-46.9-80.2c0-14.6,10.3-20.5,22.9-13.2L70.2-39c12.6,7.3,12.6,19.2,0,26.4L-24,41.8
								C-36.6,49-46.9,43-46.9,28.5V-80.2z"/>
						</g>
					</g>
				</g>
				<g>
					<g>
						<g>
							<path class="st33" d="M-46.9,66.9c0-14.5,10.3-20.5,22.9-13.2L70.2,108c12.6,7.3,12.6,19.2,0,26.4L-24,188.8
								c-12.6,7.3-22.9,1.3-22.9-13.2V66.9z"/>
						</g>
					</g>
				</g>
			</g>
		</g>
	</g>
</g>
<g id="Capa_8" class="st0">
	<g class="st1">
		<circle class="st34" cx="20" cy="47.6" r="220"/>
		<circle class="st35" cx="20" cy="47.6" r="191.1"/>
		<circle class="st36" cx="20" cy="47.6" r="161.3"/>
	</g>
</g>
<g id="Capa_2_2_" class="st0">
	<g id="Capa_1-2" class="st1">
		<path class="st37" d="M110,50c-7.6-17.7-18.5-33.7-32.3-47.2C72.6-2,67.1-6.5,61.4-10.6c-8.5,13.1-16,27-22.2,41.4
			c-4.4,9.8-9.3,20-14.6,29.7c4.3,5.8,7.8,12.1,10.3,18.8c3.6,9.4,5.5,19.5,5.4,29.6v0.8c0.1,10.1-1.7,20.1-5.4,29.6
			c-3.3,9-8.4,17.2-14.8,24.3s-14.3,12.7-23,16.7c-9.5,4.2-19.7,6.3-30.1,6.2c-10.3,0.1-20.6-2.1-30-6.3
			c-8.8-4.1-16.7-9.9-23.3-17.1c-6.5-7.2-11.6-15.5-15.1-24.6c-3.6-9.5-5.4-19.5-5.4-29.6v-0.8c-0.1-10.1,1.7-20.1,5.2-29.6
			c3.2-9.1,8.3-17.4,14.8-24.5C-68.4,34.7-41,26.9-15.2,33.7c1.5-11.4,2-24.3,2.4-38.7c0-11.2,0.7-22.6,1.7-34.1
			c-7.3-0.9-14.6-1.4-21.9-1.3c-20.9,0-41.7,4.2-61,12.2c-18.4,7.1-35.3,17.8-49.7,31.3c-28.2,27.7-44.2,65.9-44,105.6v0.8
			c-0.1,39.5,15.7,77.4,43.9,105c14,13.7,30.6,24.5,48.8,31.9c19.5,7.9,40.5,11.9,61.6,11.7c21.1,0.2,42-3.8,61.6-11.7
			c18.3-7.4,35-18.3,49.2-32c28.5-27.8,44.4-65.9,44.1-105.6V108C121.6,88,117.7,68.2,110,50z"/>
		<path class="st38" d="M227.7-162.6c-197,53.8-104,105.2-104,105.2C12.4-53.9,44.1,83.4-48.7,104.6
			C78,48.6-125.8-166.1,227.7-162.6z"/>
	</g>
</g>
<g>
	<path class="st39" d="M17.9,29c7.4-9,7-19.2,6.8-21.5c1-3,1-6.1,1-6.1C28.4,10.2,24.5,22.3,17.9,29z"/>
	<path class="st40" d="M14.2,32.5c9.8-6.1,12.5-16.1,13.2-18.2c2-2.6,2.8-5.5,2.8-5.5C29.9,17.9,22.6,28.1,14.2,32.5z"/>
	<path class="st41" d="M10.1,34.5c11.2-3,16.8-11.7,18-13.5c2.6-1.8,4.3-4.4,4.3-4.4C29.5,25.3,19.4,32.9,10.1,34.5z"/>
	<path class="st42" d="M6.4,38.6c0,0,10.8-8.4,23.4-1c0,0,2.3-0.7,3.8,0C33.6,37.6,20.9,26.8,6.4,38.6z"/>
</g>
</svg>
