<?xml version="1.0" encoding="utf-8"?>
<!-- Generator: Adobe Illustrator 25.4.1, SVG Export Plug-In . SVG Version: 6.00 Build 0)  -->
<svg version="1.1" id="Grupo_5272" xmlns="http://www.w3.org/2000/svg" xmlns:xlink="http://www.w3.org/1999/xlink" x="0px" y="0px"
	 viewBox="0 0 40 40" style="enable-background:new 0 0 40 40;" xml:space="preserve">
<style type="text/css">
	.st0{fill:#FFBF3C;}
	.st1{fill:#8347AD;}
	.st2{fill:#F45197;}
	.st3{fill:#54C8E8;}
	.st4{fill:#DAE343;}
	.st5{fill:#EA0029;}
</style>
<g id="Grupo_3944" transform="translate(0 0)">
	<path id="Trazado_173" class="st0" d="M16.551,11.587c0.269-0.092,0.412-0.385,0.32-0.654c-0.052-0.15-0.17-0.269-0.32-0.32
		l-6.023-3.476c-0.463-0.265-0.842-0.049-0.842,0.486v6.952c0,0.536,0.378,0.756,0.842,0.488L16.551,11.587z"/>
	<path id="Trazado_174" class="st1" d="M16.551,20.487c0.269-0.092,0.412-0.385,0.32-0.654c-0.052-0.15-0.17-0.269-0.32-0.32
		l-6.023-3.476c-0.463-0.265-0.842-0.049-0.842,0.486v6.952c0,0.536,0.378,0.756,0.842,0.488L16.551,20.487z"/>
	<path id="Trazado_175" class="st2" d="M16.551,29.385c0.269-0.091,0.413-0.382,0.322-0.651c-0.051-0.151-0.17-0.27-0.322-0.322
		l-6.023-3.476c-0.463-0.265-0.842-0.05-0.842,0.486v6.952c0,0.536,0.378,0.756,0.842,0.488L16.551,29.385z"/>
	<path id="Trazado_176" class="st3" d="M17.394,19.022c0,0.536,0.378,0.756,0.843,0.488l6.022-3.476
		c0.269-0.092,0.412-0.385,0.32-0.654c-0.052-0.15-0.17-0.269-0.32-0.32l-6.022-3.476c-0.464-0.265-0.843-0.049-0.843,0.486V19.022z
		"/>
	<path id="Trazado_177" class="st4" d="M17.394,27.924c0,0.536,0.378,0.756,0.843,0.488l6.022-3.476
		c0.269-0.092,0.412-0.385,0.32-0.654c-0.052-0.15-0.17-0.269-0.32-0.32l-6.022-3.476c-0.464-0.265-0.843-0.049-0.843,0.486V27.924z
		"/>
	<path id="Trazado_178" class="st5" d="M25.101,23.474c0,0.536,0.378,0.756,0.843,0.488l6.022-3.476
		c0.269-0.092,0.412-0.385,0.32-0.654c-0.052-0.15-0.17-0.269-0.32-0.32l-6.022-3.476c-0.464-0.265-0.843-0.049-0.843,0.486V23.474z
		"/>
</g>
</svg>
