<svg xmlns="http://www.w3.org/2000/svg" viewBox="0 0 11.35 8.06"><defs><style>.cls-1{fill:#c62a57;}</style></defs><title>icoMomentos</title><g id="Capa_2" data-name="Capa 2"><g id="Layer_15" data-name="Layer 15"><path class="cls-1" d="M2,3.48V3.34c0-.13,0-.26.05-.39A1.82,1.82,0,0,1,3.9,1.35,2.8,2.8,0,0,1,5.77,2,.11.11,0,0,0,6,2a2.74,2.74,0,0,1,2-.6,1.76,1.76,0,0,1,1.53,1,2.65,2.65,0,0,1,.11,1.86A4.76,4.76,0,0,1,8.44,6.1,10.61,10.61,0,0,1,6,8a.23.23,0,0,1-.26,0A11.08,11.08,0,0,1,3.51,6.34,5.5,5.5,0,0,1,2.25,4.51,3.65,3.65,0,0,1,2,3.48Z"/><path class="cls-1" d="M9.71,0c.19.12.21.21.11.4a3.37,3.37,0,0,1-.19.32.23.23,0,0,1-.32.09A.22.22,0,0,1,9.23.5,1.23,1.23,0,0,1,9.58,0Z"/><path class="cls-1" d="M10.9,2.73a1.23,1.23,0,0,1,.27,0,.22.22,0,0,1,.18.23.21.21,0,0,1-.18.21,1.19,1.19,0,0,1-.53,0A.21.21,0,0,1,10.45,3a.23.23,0,0,1,.18-.22A1.23,1.23,0,0,1,10.9,2.73Z"/><path class="cls-1" d="M10.94,1.4a.21.21,0,0,1-.12.2,3.72,3.72,0,0,1-.38.22.22.22,0,0,1-.31-.08.22.22,0,0,1,.07-.31c.13-.08.26-.16.4-.23A.23.23,0,0,1,10.94,1.4Z"/><path class="cls-1" d="M1.63,0c-.18.12-.21.21-.1.4a3.37,3.37,0,0,0,.19.32A.23.23,0,0,0,2,.81.22.22,0,0,0,2.12.5,1.34,1.34,0,0,0,1.77,0Z"/><path class="cls-1" d="M.45,2.73a1.23,1.23,0,0,0-.27,0A.22.22,0,0,0,0,3a.2.2,0,0,0,.18.21,1.19,1.19,0,0,0,.53,0A.21.21,0,0,0,.9,3a.23.23,0,0,0-.18-.22A1.23,1.23,0,0,0,.45,2.73Z"/><path class="cls-1" d="M.41,1.4a.21.21,0,0,0,.12.2,2.88,2.88,0,0,0,.38.22.22.22,0,0,0,.31-.08.22.22,0,0,0-.08-.31A3.64,3.64,0,0,0,.75,1.2.23.23,0,0,0,.41,1.4Z"/></g></g></svg>